<svg viewBox="0 0 190.47619047619048 315.8132672503534" class="css-1j8o68f">
  <defs id="SvgjsDefs1623"></defs>
  <g id="SvgjsG1624" featurekey="MI9fam-0"
    transform="matrix(2.0833332538604736,0,0,2.0833332538604736,-8.833333333333336,-20.928955078125)" fill="#aa96da"
    style="--darkreader-inline-fill: #372365;" data-darkreader-inline-fill="">
    <path xmlns="http://www.w3.org/2000/svg"
      d="M84.3970947,57.6627197c-0.2868042-3.8248291-3.494812-6.8511963-7.4063721-6.8511963H50.9365234V38.3347168  c4.7996216-0.4996948,8.5537109-4.5530396,8.5537109-9.4645996c0-5.2480469-4.2856445-9.5175781-9.5537109-9.5175781  s-9.5541992,4.2695312-9.5541992,9.5175781c0,4.9115601,3.7544556,8.9649048,8.5541992,9.4645996v12.4768066H23.0092773  c-3.9115601,0-7.1195679,3.0263672-7.4063721,6.8511963C12.4378662,58.1333008,10,60.8522339,10,64.1347656  c0,3.6123047,2.9492188,6.5507812,6.574707,6.5507812s6.574707-2.9384766,6.574707-6.5507812  c0-3.2631226-2.4091797-5.9692383-5.546875-6.463501c0.2762451-2.725708,2.5955811-4.8597412,5.4067383-4.8597412h8.7714844  v14.3466797c-3.1512451,0.4824219-5.574707,3.1940308-5.574707,6.4667969c0,3.6123047,2.9492188,6.5517578,6.574707,6.5517578  s6.574707-2.9394531,6.574707-6.5517578c0-3.2727661-2.4234619-5.984375-5.574707-6.4667969V52.8115234h15.1557617v24.1708984  c-3.1512451,0.4824219-5.574707,3.1940308-5.574707,6.4667969C43.3618164,87.0615234,46.3110352,90,49.9365234,90  s6.574707-2.9384766,6.574707-6.5507812c0-3.2727661-2.4234619-5.984375-5.574707-6.4667969V52.8115234h15.2827148v14.3466797  c-3.1512451,0.4824219-5.574707,3.1940308-5.574707,6.4667969c0,3.6123047,2.9492188,6.5517578,6.574707,6.5517578  s6.574707-2.9394531,6.574707-6.5517578c0-3.2727661-2.4234619-5.984375-5.574707-6.4667969V52.8115234h8.7714844  c2.8111572,0,5.1304932,2.1340332,5.4067383,4.8597412c-3.1376953,0.4942627-5.546875,3.2003784-5.546875,6.463501  c0,3.6123047,2.9492188,6.5507812,6.574707,6.5507812S90,67.7470703,90,64.1347656  C90,60.8522339,87.5621338,58.1333008,84.3970947,57.6627197z M42.3823242,28.8701172  c0-4.1455078,3.3886719-7.5175781,7.5541992-7.5175781c4.1650391,0,7.5537109,3.3720703,7.5537109,7.5175781  s-3.3886719,7.5175781-7.5537109,7.5175781C45.7709961,36.3876953,42.3823242,33.015625,42.3823242,28.8701172z   M21.1494141,64.1347656c0,2.5097656-2.0522461,4.5507812-4.574707,4.5507812S12,66.6445312,12,64.1347656  s2.0522461-4.5517578,4.574707-4.5517578S21.1494141,61.625,21.1494141,64.1347656z M37.3554688,73.625  c0,2.5097656-2.0522461,4.5517578-4.574707,4.5517578s-4.574707-2.0419922-4.574707-4.5517578  s2.0522461-4.5507812,4.574707-4.5507812S37.3554688,71.1152344,37.3554688,73.625z M54.5112305,83.4492188  C54.5112305,85.9589844,52.4589844,88,49.9365234,88s-4.574707-2.0410156-4.574707-4.5507812  s2.0522461-4.5507812,4.574707-4.5507812S54.5112305,80.9394531,54.5112305,83.4492188z M71.7939453,73.625  c0,2.5097656-2.0522461,4.5517578-4.574707,4.5517578s-4.574707-2.0419922-4.574707-4.5517578  s2.0522461-4.5507812,4.574707-4.5507812S71.7939453,71.1152344,71.7939453,73.625z M83.425293,68.6855469  c-2.5224609,0-4.574707-2.0410156-4.574707-4.5507812s2.0522461-4.5517578,4.574707-4.5517578S88,61.625,88,64.1347656  S85.9477539,68.6855469,83.425293,68.6855469z">
    </path>
    <path xmlns="http://www.w3.org/2000/svg"
      d="M50.9365234,14.4306641v-3.3847656c0-0.5527344-0.4477539-1-1-1s-1,0.4472656-1,1v3.3847656c0,0.5527344,0.4477539,1,1,1  S50.9365234,14.9833984,50.9365234,14.4306641z">
    </path>
    <path xmlns="http://www.w3.org/2000/svg"
      d="M39.121582,17.1660156l-2.3935547-2.3925781c-0.390625-0.390625-1.0244141-0.390625-1.4140625,0  c-0.390625,0.390625-0.390625,1.0234375,0,1.4140625l2.3935547,2.3925781  c0.1953125,0.1953125,0.4511719,0.2929688,0.7070312,0.2929688s0.512207-0.0976562,0.7070312-0.2929688  C39.512207,18.1894531,39.512207,17.5566406,39.121582,17.1660156z">
    </path>
    <path xmlns="http://www.w3.org/2000/svg"
      d="M31.5869141,28.3955078c-0.5522461,0-1,0.4472656-1,1s0.4477539,1,1,1h3.3847656c0.5522461,0,1-0.4472656,1-1  s-0.4477539-1-1-1H31.5869141z">
    </path>
    <path xmlns="http://www.w3.org/2000/svg"
      d="M37.7075195,40.2099609l-2.3935547,2.3935547c-0.390625,0.390625-0.390625,1.0234375,0,1.4140625  c0.1953125,0.1953125,0.4511719,0.2929688,0.7070312,0.2929688s0.5117188-0.0976562,0.7070312-0.2929688l2.3935547-2.3935547  c0.390625-0.390625,0.390625-1.0234375,0-1.4140625S38.0981445,39.8193359,37.7075195,40.2099609z">
    </path>
    <path xmlns="http://www.w3.org/2000/svg"
      d="M60.7509766,41.6240234l2.3935547,2.3935547c0.1953125,0.1953125,0.4511719,0.2929688,0.7070312,0.2929688  s0.5117188-0.0976562,0.7070312-0.2929688c0.390625-0.390625,0.390625-1.0234375,0-1.4140625l-2.3935547-2.3935547  c-0.390625-0.390625-1.0234375-0.390625-1.4140625,0S60.3603516,41.2333984,60.7509766,41.6240234z">
    </path>
    <path xmlns="http://www.w3.org/2000/svg"
      d="M63.9008789,29.3955078c0,0.5527344,0.4477539,1,1,1h3.3847656c0.5522461,0,1-0.4472656,1-1s-0.4477539-1-1-1h-3.3847656  C64.3486328,28.3955078,63.9008789,28.8427734,63.9008789,29.3955078z">
    </path>
    <path xmlns="http://www.w3.org/2000/svg"
      d="M63.1445312,14.7734375l-2.3935547,2.3925781c-0.390625,0.390625-0.390625,1.0234375,0,1.4140625  c0.1953125,0.1953125,0.4511719,0.2929688,0.7070312,0.2929688s0.5117188-0.0976562,0.7070312-0.2929688L64.5585938,16.1875  c0.390625-0.390625,0.390625-1.0234375,0-1.4140625S63.5351562,14.3828125,63.1445312,14.7734375z">
    </path>
  </g>
  <g id="SvgjsG1625" featurekey="EI8VXn-0"
    transform="matrix(4.6961588859558105,0,0,4.6961588859558105,-0.46961543463796923,158.9169701370131)" fill="#aa96da"
    style="--darkreader-inline-fill: #372365;" data-darkreader-inline-fill="">
    <path
      d="M7.08 20 c-1.24 0 -2.4 -0.32 -3.46 -0.96 c-2.16 -1.26 -3.52 -3.64 -3.52 -6.02 c0 -1.24 0.32 -2.42 0.96 -3.52 c1.28 -2.22 3.48 -3.48 6.02 -3.48 c1.74 0 3.42 0.66 4.7 1.84 c0.04 0.02 0.1 0.06 0.16 0.12 l0.14 0.16 l-0.5 0.52 l-0.28 -0.28 c-1.14 -1.06 -2.64 -1.64 -4.22 -1.64 c-1.12 0 -2.16 0.28 -3.12 0.84 c-1.94 1.12 -3.14 3.2 -3.14 5.44 c0 1.12 0.28 2.16 0.84 3.12 c1.12 1.94 3.18 3.14 5.42 3.14 c1.36 0 2.4 -0.38 4.1 -1.48 l0 -4.6 l-4.38 0 l0 -0.72 l5.08 0 l0 5.7 l-0.14 0.12 c-1.78 1.22 -3.06 1.7 -4.66 1.7 z M7.08 18.64 c-1 0 -1.94 -0.26 -2.8 -0.76 c-1.76 -1.02 -2.84 -2.86 -2.84 -4.86 c0 -1.02 0.26 -1.98 0.76 -2.86 c1.02 -1.74 2.82 -2.78 4.88 -2.78 c1.14 0 2.24 0.36 3.3 1.06 l0.52 0.4 l0.26 0.26 l-1.44 1.56 l-0.64 -0.5 c-0.58 -0.42 -1.26 -0.64 -2 -0.64 c-0.6 0 -1.18 0.16 -1.72 0.46 c-1.1 0.64 -1.76 1.76 -1.76 3.04 c0 0.6 0.16 1.18 0.48 1.72 c0.62 1.1 1.74 1.76 3 1.76 c0.5 0 0.96 -0.1 1.38 -0.32 l0 -0.32 l-1.66 0 l0 -2.04 l3.74 0 l0 3.56 l-0.46 0.36 c-0.9 0.62 -1.82 0.9 -3 0.9 z M7.08 8.1 c-0.88 0 -1.7 0.22 -2.46 0.66 c-1.52 0.88 -2.46 2.5 -2.46 4.26 c0 0.88 0.22 1.7 0.66 2.44 c0.88 1.52 2.5 2.46 4.26 2.46 c0.98 0 1.86 -0.26 2.6 -0.76 l0.14 -0.12 l0 -2.5 l-2.3 0 l0 0.6 l1.66 0 l0 1.5 l-0.2 0.1 c-0.66 0.32 -1.28 0.48 -1.9 0.48 c-0.72 0 -1.42 -0.2 -2.08 -0.58 c-1.34 -0.78 -2.12 -2.08 -2.12 -3.62 c0 -0.76 0.18 -1.46 0.56 -2.12 c0.74 -1.28 2.1 -2.08 3.64 -2.08 c0.86 0 1.68 0.26 2.42 0.76 l0.14 0.1 l0.48 -0.52 l-0.16 -0.12 c-0.86 -0.62 -1.82 -0.94 -2.88 -0.94 z M14.120000000000001 6 l2.1 0 l0 12.66 l-0.72 0 l0 -11.94 l-0.66 0 l0 12.56 l2.02 0 l0 -13.28 l0.72 0 l0 14 l-3.46 0 l0 -14 z M22.099999999999998 16.7 c0.98 0.44 1.84 0.66 2.56 0.66 c0.36 0 0.58 -0.02 0.68 -0.08 c0.46 -0.12 0.78 -0.38 0.98 -0.78 l0.02 -0.04 c0.1 -0.18 0.14 -0.4 0.14 -0.68 c0 -0.14 -0.04 -0.3 -0.12 -0.5 l-0.04 -0.08 c-0.26 -0.54 -0.84 -0.9 -1.9 -1.24 l-0.2 -0.06 l-0.06 -0.02 c-1.62 -0.48 -2.66 -1.24 -3.16 -2.3 c-0.2 -0.4 -0.3 -0.84 -0.3 -1.32 c0 -0.5 0.1 -0.98 0.3 -1.48 l0.04 -0.08 c0.46 -0.92 1.2 -1.52 2.18 -1.82 c0.7 -0.1 1.1 -0.16 1.2 -0.16 c1.36 0 2.94 0.56 4.72 1.66 l0.38 -0.62 c-1.94 -1.18 -3.62 -1.76 -5.08 -1.76 c-0.58 0 -1.06 0.06 -1.4 0.2 c-1.18 0.32 -2.06 1.04 -2.64 2.18 l-0.06 0.14 c-0.24 0.58 -0.36 1.16 -0.36 1.74 c0 0.62 0.12 1.16 0.36 1.64 c0.62 1.24 1.82 2.12 3.62 2.66 l0.24 0.08 c0.82 0.26 1.3 0.54 1.48 0.86 l0.02 0.04 c0.04 0.06 0.06 0.14 0.06 0.24 c0 0.18 -0.02 0.3 -0.08 0.4 c-0.14 0.32 -0.48 0.48 -1.02 0.48 c-0.86 0 -2.1 -0.44 -3.06 -1.06 l-0.3 -0.18 l-1.76 2.84 l0.3 0.18 c1.42 0.96 3.3 1.56 4.82 1.56 c0.5 0 0.96 -0.06 1.38 -0.18 c1.18 -0.34 2.06 -1.08 2.64 -2.2 l0.08 -0.14 c0.24 -0.62 0.36 -1.2 0.36 -1.74 c0 -0.48 -0.16 -1.08 -0.46 -1.82 c-0.54 -1.08 -1.68 -1.9 -3.46 -2.46 l-0.28 -0.08 c-0.56 -0.18 -0.94 -0.36 -1.12 -0.5 c-0.24 -0.2 -0.38 -0.34 -0.44 -0.42 l-0.04 -0.22 c0 -0.2 0.04 -0.38 0.14 -0.52 c0.16 -0.3 0.32 -0.38 0.96 -0.38 c0.86 0 2.1 0.44 3.06 1.06 l0.3 0.18 l1.08 -1.72 l-0.32 -0.18 c-1.22 -0.8 -2.88 -1.36 -4.1 -1.36 c-0.54 0 -0.88 0.04 -1.06 0.14 c-0.82 0.24 -1.44 0.76 -1.84 1.54 c-0.18 0.34 -0.26 0.74 -0.26 1.24 c0 0.38 0.08 0.74 0.24 1.08 c0.42 0.9 1.36 1.56 2.82 2 l0.26 0.08 l0.54 0.2 c0.3 0.12 0.62 0.28 0.98 0.48 c0.64 0.38 0.96 0.92 0.96 1.64 c0 0.4 -0.1 0.78 -0.28 1.12 c-0.42 0.74 -1.14 1.12 -2.14 1.12 c-0.68 0 -1.64 -0.26 -2.88 -0.76 l-0.34 0.58 l-0.02 0.04 c1.14 0.58 2.22 0.86 3.26 0.86 c0.58 0 1.12 -0.12 1.6 -0.36 c0.94 -0.46 1.52 -1.42 1.52 -2.62 c0 -1.9 -1.46 -2.46 -3 -3 l-0.26 -0.08 c-1.26 -0.38 -2.04 -0.9 -2.36 -1.6 c-0.12 -0.24 -0.18 -0.5 -0.18 -0.8 c0 -0.38 0.06 -0.68 0.2 -0.94 c0.32 -0.58 0.78 -0.96 1.38 -1.14 l0.8 -0.1 c1.06 0 2.22 0.36 3.48 1.06 l-0.32 0.5 c-1.3 -0.64 -2.34 -0.96 -3.1 -0.96 c-0.38 0 -0.6 0.02 -0.7 0.08 c-0.44 0.12 -0.76 0.38 -0.98 0.8 l-0.02 0.04 c-0.1 0.18 -0.14 0.42 -0.14 0.72 c0 0.22 0.04 0.38 0.1 0.48 c0.26 0.54 0.94 0.98 2.02 1.3 l0.26 0.08 l0.5 0.16 c0.06 0.02 0.38 0.16 0.96 0.44 c0.78 0.44 1.34 1 1.66 1.66 c0.2 0.4 0.3 0.84 0.3 1.32 c0 0.58 -0.1 1.08 -0.32 1.5 l-0.04 0.08 c-0.46 0.92 -1.2 1.52 -2.18 1.82 c-0.7 0.1 -1.1 0.16 -1.2 0.16 c-1.02 0 -2.34 -0.38 -3.56 -0.96 l-0.56 -0.3 l1 -1.62 z M35.16 8.6 l4.78 0 l0 -1.9 l-8.5 0 l0 0.62 l7.82 0 l0 0.72 l-8.54 0 l0 -2.06 l9.94 0 l0 3.34 l-4.78 0 l0 9.36 l-0.72 0 l0 -10.08 z M33.82 9.32 l-3.1 0 l0 -0.72 l3.82 0 l0 10.66 l2 0 l0 -9.32 l0.72 0 l0 10.06 l-3.44 0 l0 -10.68 z">
    </path>
  </g>
  <g id="SvgjsG1626" featurekey="EI8VXn-1"
    transform="matrix(3.7837932109832764,0,0,3.7837932109832764,0,240.29724838545684)" fill="#aa96da"
    style="--darkreader-inline-fill: #372365;" data-darkreader-inline-fill="">
    <path
      d="M2.56 16.7 c0.98 0.44 1.84 0.66 2.56 0.66 c0.36 0 0.58 -0.02 0.68 -0.08 c0.46 -0.12 0.78 -0.38 0.98 -0.78 l0.02 -0.04 c0.1 -0.18 0.14 -0.4 0.14 -0.68 c0 -0.14 -0.04 -0.3 -0.12 -0.5 l-0.04 -0.08 c-0.26 -0.54 -0.84 -0.9 -1.9 -1.24 l-0.2 -0.06 l-0.06 -0.02 c-1.62 -0.48 -2.66 -1.24 -3.16 -2.3 c-0.2 -0.4 -0.3 -0.84 -0.3 -1.32 c0 -0.5 0.1 -0.98 0.3 -1.48 l0.04 -0.08 c0.46 -0.92 1.2 -1.52 2.18 -1.82 c0.7 -0.1 1.1 -0.16 1.2 -0.16 c1.36 0 2.94 0.56 4.72 1.66 l0.38 -0.62 c-1.94 -1.18 -3.62 -1.76 -5.08 -1.76 c-0.58 0 -1.06 0.06 -1.4 0.2 c-1.18 0.32 -2.06 1.04 -2.64 2.18 l-0.06 0.14 c-0.24 0.58 -0.36 1.16 -0.36 1.74 c0 0.62 0.12 1.16 0.36 1.64 c0.62 1.24 1.82 2.12 3.62 2.66 l0.24 0.08 c0.82 0.26 1.3 0.54 1.48 0.86 l0.02 0.04 c0.04 0.06 0.06 0.14 0.06 0.24 c0 0.18 -0.02 0.3 -0.08 0.4 c-0.14 0.32 -0.48 0.48 -1.02 0.48 c-0.86 0 -2.1 -0.44 -3.06 -1.06 l-0.3 -0.18 l-1.76 2.84 l0.3 0.18 c1.42 0.96 3.3 1.56 4.82 1.56 c0.5 0 0.96 -0.06 1.38 -0.18 c1.18 -0.34 2.06 -1.08 2.64 -2.2 l0.08 -0.14 c0.24 -0.62 0.36 -1.2 0.36 -1.74 c0 -0.48 -0.16 -1.08 -0.46 -1.82 c-0.54 -1.08 -1.68 -1.9 -3.46 -2.46 l-0.28 -0.08 c-0.56 -0.18 -0.94 -0.36 -1.12 -0.5 c-0.24 -0.2 -0.38 -0.34 -0.44 -0.42 l-0.04 -0.22 c0 -0.2 0.04 -0.38 0.14 -0.52 c0.16 -0.3 0.32 -0.38 0.96 -0.38 c0.86 0 2.1 0.44 3.06 1.06 l0.3 0.18 l1.08 -1.72 l-0.32 -0.18 c-1.22 -0.8 -2.88 -1.36 -4.1 -1.36 c-0.54 0 -0.88 0.04 -1.06 0.14 c-0.82 0.24 -1.44 0.76 -1.84 1.54 c-0.18 0.34 -0.26 0.74 -0.26 1.24 c0 0.38 0.08 0.74 0.24 1.08 c0.42 0.9 1.36 1.56 2.82 2 l0.26 0.08 l0.54 0.2 c0.3 0.12 0.62 0.28 0.98 0.48 c0.64 0.38 0.96 0.92 0.96 1.64 c0 0.4 -0.1 0.78 -0.28 1.12 c-0.42 0.74 -1.14 1.12 -2.14 1.12 c-0.68 0 -1.64 -0.26 -2.88 -0.76 l-0.34 0.58 l-0.02 0.04 c1.14 0.58 2.22 0.86 3.26 0.86 c0.58 0 1.12 -0.12 1.6 -0.36 c0.94 -0.46 1.52 -1.42 1.52 -2.62 c0 -1.9 -1.46 -2.46 -3 -3 l-0.26 -0.08 c-1.26 -0.38 -2.04 -0.9 -2.36 -1.6 c-0.12 -0.24 -0.18 -0.5 -0.18 -0.8 c0 -0.38 0.06 -0.68 0.2 -0.94 c0.32 -0.58 0.78 -0.96 1.38 -1.14 l0.8 -0.1 c1.06 0 2.22 0.36 3.48 1.06 l-0.32 0.5 c-1.3 -0.64 -2.34 -0.96 -3.1 -0.96 c-0.38 0 -0.6 0.02 -0.7 0.08 c-0.44 0.12 -0.76 0.38 -0.98 0.8 l-0.02 0.04 c-0.1 0.18 -0.14 0.42 -0.14 0.72 c0 0.22 0.04 0.38 0.1 0.48 c0.26 0.54 0.94 0.98 2.02 1.3 l0.26 0.08 l0.5 0.16 c0.06 0.02 0.38 0.16 0.96 0.44 c0.78 0.44 1.34 1 1.66 1.66 c0.2 0.4 0.3 0.84 0.3 1.32 c0 0.58 -0.1 1.08 -0.32 1.5 l-0.04 0.08 c-0.46 0.92 -1.2 1.52 -2.18 1.82 c-0.7 0.1 -1.1 0.16 -1.2 0.16 c-1.02 0 -2.34 -0.38 -3.56 -0.96 l-0.56 -0.3 l1 -1.62 z M17.16 18.72 l0.72 0 l-0.02 -5.82 l4.26 -6.18 l0.78 0 l-4.34 6.22 l0 6.34 l-2.06 0 l0.02 -6.34 l-4.86 -6.94 l-0.88 0 l4.98 7.16 l0 6.84 l3.52 0 l0 -6.84 l5 -7.16 l-2.52 0 l-4.6 6.66 l0 6.06 z M20.1 6 l-3.34 4.9 l-2.96 -4.18 l0.78 0 l2.24 3.16 l0.44 -0.64 l-2.3 -3.24 l-2.52 0 l3.98 5.66 l0.34 0.52 l4.22 -6.18 l-0.88 0 z M35.34 14.3 l-8.18 -8.3 l-1 0 l9.9 10.06 l0 -8.66 l-0.72 0 l0 6.9 z M34.68 12.7 l0 -6 l2.04 0 l0 12.58 l-0.34 0 l-0.08 -0.08 l-9.16 -9.28 l0 10.08 l2.1 0 l0 -5.9 l-0.74 -0.76 l0 5.94 l-0.64 0 l0 -7.6 l8.3 8.32 l1.28 0 l0 -14 l-3.48 0 l0 5.92 z M26.48 20 l0 -11.7 l9.58 9.72 l0 -1.06 l-10.28 -10.38 l0 13.42 l0.7 0 z M48.08 15.440000000000001 c-1.26 0.82 -1.88 1.06 -2.74 1.06 c-0.6 0 -1.16 -0.16 -1.7 -0.48 c-1.06 -0.64 -1.78 -1.8 -1.78 -3 c0 -0.64 0.16 -1.24 0.48 -1.78 c0.62 -1.08 1.8 -1.72 3 -1.72 c0.76 0 1.44 0.22 2.02 0.64 c0.1 0.06 0.22 0.14 0.36 0.28 l0.3 0.22 l1.34 -1.58 l-0.22 -0.22 c-0.14 -0.14 -0.32 -0.26 -0.54 -0.4 c-0.94 -0.72 -2.04 -1.08 -3.26 -1.08 c-1.5 0 -2.88 0.58 -3.98 1.64 c-1.06 1.12 -1.66 2.5 -1.66 4 s0.6 2.92 1.66 3.98 s2.48 1.66 3.98 1.66 c1.08 0 2.08 -0.3 3.02 -0.9 l-0.4 -0.6 c-0.82 0.54 -1.68 0.8 -2.62 0.8 c-1.3 0 -2.54 -0.52 -3.48 -1.46 s-1.44 -2.18 -1.44 -3.48 s0.5 -2.52 1.44 -3.46 c0.94 -0.96 2.18 -1.46 3.48 -1.46 c0.98 0 1.92 0.3 2.86 0.92 l0.16 0.14 l-0.44 0.5 c-0.06 -0.02 -0.1 -0.04 -0.14 -0.08 c-0.74 -0.5 -1.56 -0.76 -2.44 -0.76 c-0.78 0 -1.48 0.18 -2.1 0.54 c-1.26 0.74 -2.1 2.2 -2.1 3.66 c0 0.7 0.2 1.4 0.58 2.06 c0.78 1.34 2.2 2.16 3.62 2.16 c0.94 0 1.7 -0.28 2.84 -1 l1.12 1.66 c-1.46 0.96 -2.6 1.36 -3.96 1.36 c-1.12 0 -2.16 -0.28 -3.12 -0.84 c-1.94 -1.12 -3.14 -3.16 -3.14 -5.4 c0 -1.12 0.28 -2.16 0.84 -3.14 c1.12 -1.92 3.18 -3.12 5.42 -3.12 c1.58 0 3.08 0.58 4.22 1.64 l0.12 0.1 l0.16 0.16 l0.5 -0.52 l-0.28 -0.28 c-1.28 -1.14 -2.96 -1.8 -4.72 -1.8 c-1.26 0 -2.42 0.3 -3.48 0.92 c-2.12 1.22 -3.5 3.56 -3.5 6.04 c0 1.22 0.32 2.38 0.96 3.46 c1.26 2.16 3.52 3.52 6.02 3.52 c1.58 0 2.9 -0.5 4.68 -1.72 l0.28 -0.18 l-1.9 -2.86 z">
    </path>
  </g>
</svg>
